# xmcd
# Track frame offsets:
# 150
# 15067
# 27803
# 43289
# 64238
# 75710
#
# Disc length: 1172 seconds
# Revision: 0
# Processed by: cddbd v1.5.2PL0 Copyright (c) Steve Scherf et al.
# Submitted via: VisiTrax 2.10.2.252 - For more info visit www.synapsa.com
#
DISCID=3e049206
DTITLE=Lazy Roosters - Demo
DYEAR=2007
DGENRE=Blues
TTITLE0=When I get drunk
TTITLE1=Temperature
TTITLE2=Shine on
TTITLE3=Swampnight
TTITLE4=Belive what I said
TTITLE5=Warm hearted woman
EXTD=
EXTT0=
EXTT1=
EXTT2=
EXTT3=
EXTT4=
EXTT5=
PLAYORDER=
